{
  "accessors": [
    {
      "bufferView": 2,
      "componentType": 5126,
      "count": 10079,
      "max": [
        150.7372589111328,
        239.5272216796875,
        181.45616149902344
      ],
      "min": [
        -184.0962371826172,
        30.012332916259766,
        -13.096175193786621
      ],
      "type": "VEC3"
    },
    {
      "bufferView": 2,
      "byteOffset": 120948,
      "componentType": 5126,
      "count": 10079,
      "max": [
        0.9997113347053528,
        0.9998592734336853,
        0.9998918175697327
      ],
      "min": [
        -0.9978768825531006,
        -0.9980263710021973,
        -0.9994443655014038
      ],
      "type": "VEC3"
    },
    {
      "bufferView": 3,
      "componentType": 5126,
      "count": 10079,
      "max": [
        0.9996778964996338,
        0.9995325207710266,
        0.9998974800109863,
        1.0
      ],
      "min": [
        -0.9797903299331665,
        -0.9997342824935913,
        -0.9999693036079407,
        1.0
      ],
      "type": "VEC4"
    },
    {
      "bufferView": 1,
      "componentType": 5126,
      "count": 10079,
      "max": [
        0.998046875,
        0.913120687007904
      ],
      "min": [
        0.001953128492459655,
        0.001953128492459655
      ],
      "type": "VEC2"
    },
    {
      "bufferView": 0,
      "componentType": 5125,
      "count": 59988,
      "type": "SCALAR"
    },
    {
      "bufferView": 2,
      "byteOffset": 241896,
      "componentType": 5126,
      "count": 10181,
      "max": [
        163.81687927246094,
        189.38174438476563,
        167.3521270751953
      ],
      "min": [
        -184.19198608398438,
        -155.12356567382813,
        -188.08082580566406
      ],
      "type": "VEC3"
    },
    {
      "bufferView": 2,
      "byteOffset": 364068,
      "componentType": 5126,
      "count": 10181,
      "max": [
        0.9998133182525635,
        0.9998147487640381,
        0.9997891783714294
      ],
      "min": [
        -0.9998629093170166,
        -0.9994485378265381,
        -0.9992339015007019
      ],
      "type": "VEC3"
    },
    {
      "bufferView": 3,
      "byteOffset": 161264,
      "componentType": 5126,
      "count": 10181,
      "max": [
        0.8783776164054871,
        0.9997822642326355,
        0.9958396553993225,
        1.0
      ],
      "min": [
        -0.9993047118186951,
        -0.9999319911003113,
        -0.9995021224021912,
        1.0
      ],
      "type": "VEC4"
    },
    {
      "bufferView": 1,
      "byteOffset": 80632,
      "componentType": 5126,
      "count": 10181,
      "max": [
        0.9444629549980164,
        0.998046875
      ],
      "min": [
        0.0019531268626451492,
        0.0019531268626451492
      ],
      "type": "VEC2"
    },
    {
      "bufferView": 0,
      "byteOffset": 239952,
      "componentType": 5125,
      "count": 60000,
      "type": "SCALAR"
    }
  ],
  "asset": {
    "extras": {
      "author": "Somersby (https://sketchfab.com/Somersby)",
      "license": "CC-BY-4.0 (http://creativecommons.org/licenses/by/4.0/)",
      "source": "https://sketchfab.com/3d-models/hollow-asteroid-5b0de57987fe471fbbe67e4105a88aea",
      "title": "Hollow Asteroid"
    },
    "generator": "Sketchfab-12.65.0",
    "version": "2.0"
  },
  "bufferViews": [
    {
      "buffer": 0,
      "byteLength": 479952,
      "name": "floatBufferViews",
      "target": 34963
    },
    {
      "buffer": 0,
      "byteLength": 162080,
      "byteOffset": 479952,
      "byteStride": 8,
      "name": "floatBufferViews",
      "target": 34962
    },
    {
      "buffer": 0,
      "byteLength": 486240,
      "byteOffset": 642032,
      "byteStride": 12,
      "name": "floatBufferViews",
      "target": 34962
    },
    {
      "buffer": 0,
      "byteLength": 324160,
      "byteOffset": 1128272,
      "byteStride": 16,
      "name": "floatBufferViews",
      "target": 34962
    }
  ],
  "buffers": [
    {
      "byteLength": 1452432,
      "uri": "scene.bin"
    }
  ],
  "images": [
    {
      "uri": "textures/Asteroid_baseColor.jpeg"
    },
    {
      "uri": "textures/Asteroid_metallicRoughness.png"
    },
    {
      "uri": "textures/Asteroid_normal.png"
    },
    {
      "uri": "textures/Hollow_Asteroid_baseColor.jpeg"
    },
    {
      "uri": "textures/Hollow_Asteroid_metallicRoughness.png"
    },
    {
      "uri": "textures/Hollow_Asteroid_normal.png"
    }
  ],
  "materials": [
    {
      "doubleSided": true,
      "name": "Asteroid",
      "normalTexture": {
        "index": 2
      },
      "pbrMetallicRoughness": {
        "baseColorTexture": {
          "index": 0
        },
        "metallicRoughnessTexture": {
          "index": 1
        }
      }
    },
    {
      "doubleSided": true,
      "name": "Hollow_Asteroid",
      "normalTexture": {
        "index": 5
      },
      "pbrMetallicRoughness": {
        "baseColorTexture": {
          "index": 3
        },
        "metallicRoughnessTexture": {
          "index": 4
        }
      }
    }
  ],
  "meshes": [
    {
      "name": "Asteroid_Asteroid_0",
      "primitives": [
        {
          "attributes": {
            "NORMAL": 1,
            "POSITION": 0,
            "TANGENT": 2,
            "TEXCOORD_0": 3
          },
          "indices": 4,
          "material": 0,
          "mode": 4
        }
      ]
    },
    {
      "name": "Hollow_Asteroid_Hollow_Asteroid_0",
      "primitives": [
        {
          "attributes": {
            "NORMAL": 6,
            "POSITION": 5,
            "TANGENT": 7,
            "TEXCOORD_0": 8
          },
          "indices": 9,
          "material": 1,
          "mode": 4
        }
      ]
    }
  ],
  "nodes": [
    {
      "children": [
        1
      ],
      "matrix": [
        1.0,
        -4.8033446892643715e-32,
        1.6081226229577292e-16,
        0.0,
        1.232595164407831e-32,
        -1.0,
        -4.440892098500626e-16,
        0.0,
        1.6081226229577292e-16,
        4.440892098500626e-16,
        -1.0,
        0.0,
        -7.105427357601002e-15,
        45.51416015624999,
        38.88949584960938,
        1.0
      ],
      "name": "Sketchfab_model"
    },
    {
      "children": [
        2
      ],
      "matrix": [
        1.0,
        0.0,
        0.0,
        0.0,
        0.0,
        0.0,
        1.0,
        0.0,
        0.0,
        -1.0,
        0.0,
        0.0,
        0.0,
        0.0,
        0.0,
        1.0
      ],
      "name": "Asteroid.fbx"
    },
    {
      "children": [
        3,
        5
      ],
      "name": "RootNode"
    },
    {
      "children": [
        4
      ],
      "name": "Asteroid"
    },
    {
      "mesh": 0,
      "name": "Asteroid_Asteroid_0"
    },
    {
      "children": [
        6
      ],
      "name": "Hollow_Asteroid"
    },
    {
      "mesh": 1,
      "name": "Hollow_Asteroid_Hollow_Asteroid_0"
    }
  ],
  "samplers": [
    {
      "magFilter": 9729,
      "minFilter": 9987,
      "wrapS": 10497,
      "wrapT": 10497
    }
  ],
  "scene": 0,
  "scenes": [
    {
      "name": "Sketchfab_Scene",
      "nodes": [
        0
      ]
    }
  ],
  "textures": [
    {
      "sampler": 0,
      "source": 0
    },
    {
      "sampler": 0,
      "source": 1
    },
    {
      "sampler": 0,
      "source": 2
    },
    {
      "sampler": 0,
      "source": 3
    },
    {
      "sampler": 0,
      "source": 4
    },
    {
      "sampler": 0,
      "source": 5
    }
  ]
}
